<svg width="62" height="62" viewBox="0 0 62 62" fill="none" xmlns="http://www.w3.org/2000/svg">
<path d="M28.0741 1L26.9342 7.41941C25.4987 7.65804 24.0877 8.02614 22.7186 8.51921L18.54 3.55165L13.4758 6.47561L15.6439 12.5346C14.4985 13.4697 13.4415 14.5082 12.4864 15.6369L6.48881 13.4622L3.56501 18.5264L8.37334 22.606C7.8336 24.0208 7.42833 25.4833 7.16292 26.974L1 28.0684V33.9163L7.16097 35.0371C7.40676 36.5426 7.79488 38.0214 8.32009 39.4535L3.55713 43.4602L6.48094 48.5246L12.3184 46.4358C13.2961 47.6274 14.3858 48.7224 15.5725 49.706L13.4679 55.5111L18.5321 58.4349L22.5339 53.7179C23.9787 54.2585 25.472 54.6592 26.9933 54.9144L28.0739 61H33.9218L35.0308 54.905C36.5355 54.6368 38.0113 54.2261 39.4383 53.6784L43.4757 58.4371L48.5399 55.5131L46.3852 49.5706C47.536 48.61 48.5947 47.5442 49.5476 46.3871L55.5266 48.5266L58.4504 43.4622L53.5289 39.3223C54.037 37.9421 54.4178 36.5182 54.6665 35.0686L61 33.9163V28.0684L54.5995 26.9319C54.346 25.5071 53.9647 24.108 53.4603 22.7515L58.4427 18.5246L55.5189 13.4601L49.3711 15.6893C48.4476 14.5869 47.4274 13.5694 46.3226 12.6489L48.5322 6.47351L43.468 3.5497L39.2564 8.55671C37.9042 8.0511 36.5093 7.66796 35.0885 7.41191L33.9219 1.00015L28.0741 1ZM31.0002 21.628C32.2309 21.628 33.4496 21.8704 34.5867 22.3414C35.7237 22.8124 36.7569 23.5028 37.6272 24.373C38.4974 25.2433 39.1878 26.2765 39.6588 27.4135C40.1298 28.5506 40.3722 29.7693 40.3722 31C40.3722 33.4856 39.3848 35.8695 37.6272 37.6271C35.8696 39.3846 33.4858 40.3721 31.0002 40.3721C28.5145 40.3721 26.1307 39.3846 24.3731 37.6271C22.6155 35.8695 21.6281 33.4856 21.6281 31C21.6281 28.5144 22.6155 26.1306 24.3731 24.373C26.1307 22.6154 28.5145 21.628 31.0002 21.628ZM31.0002 25.377C29.5087 25.377 28.0784 25.9694 27.0238 27.024C25.9692 28.0786 25.3767 29.509 25.3767 31.0004C25.3767 32.4918 25.9692 33.9222 27.0238 34.9768C28.0784 36.0314 29.5087 36.6238 31.0002 36.6238C32.4916 36.6238 33.9219 36.0314 34.9765 34.9768C36.0311 33.9222 36.6236 32.4918 36.6236 31.0004C36.6236 29.509 36.0311 28.0786 34.9765 27.024C33.9219 25.9694 32.4916 25.377 31.0002 25.377Z" fill="#404040" stroke="#273B50" stroke-width="0.05"/>
</svg>
